# xmcd
#
# Track frame offsets:
#	150
#	15821
#	30511
#	47145
#	64578
#	82338
#	98957
#	127764
#	141652
#	159803
#
# Disc length: 2325 seconds
#
# Revision: 0
# Processed by: cddbd v1.5.2PL0 Copyright (c) Steve Scherf et al.
# Submitted via: EZCDAudioConverter 2.1.5.1
#
DISCID=7709130a
DTITLE=Rat At Rat R - Amer$ide Rock And Roll Is Dead Long Live Rat At Rat R
DYEAR=1985
DGENRE=
TTITLE0=Plague
TTITLE1=No Ears
TTITLE2=Bloodshot
TTITLE3=Wild P.S.
TTITLE4=Assassin
TTITLE5=Asshole
TTITLE6=Rape
TTITLE7=Amer$ide
TTITLE8=Home, Boyh!
TTITLE9=Big Rock Joke Doll
EXTD=
EXTT0=
EXTT1=
EXTT2=
EXTT3=
EXTT4=
EXTT5=
EXTT6=
EXTT7=
EXTT8=
EXTT9=
PLAYORDER=
